<svg xmlns="http://www.w3.org/2000/svg" viewBox="0 0 32 32">
  <rect width="32" height="32" rx="6" fill="#1a2332"/>
  <polyline points="4,9 8,9 10,4 12,9 16,9 18,5 20,9 24,9 26,4 28,9" fill="none" stroke="#58a6ff" stroke-width="2" stroke-linecap="round" stroke-linejoin="round"/>
  <polyline points="4,16 7,16 7,13 11,13 11,16 15,16 15,14 19,14 19,16 23,16 23,12 27,12 27,16 28,16" fill="none" stroke="#d29922" stroke-width="2" stroke-linecap="round" stroke-linejoin="round"/>
  <polyline points="4,23 8,21 12,25 16,20 20,26 24,21 28,23" fill="none" stroke="#a371f7" stroke-width="2" stroke-linecap="round" stroke-linejoin="round"/>
</svg>
